<svg width="16" height="16" viewBox="0 0 16 16" fill="none" xmlns="http://www.w3.org/2000/svg">
<path d="M11.9999 7.33341C11.9999 7.78008 11.9999 8.22008 11.9999 8.66675C12.7999 8.66675 13.8399 8.66675 14.6666 8.66675C14.6666 8.22008 14.6666 7.78008 14.6666 7.33341C13.8399 7.33341 12.7999 7.33341 11.9999 7.33341Z" fill="#FFBD00"/>
<path d="M10.6666 11.7401C11.3066 12.2134 12.1399 12.8401 12.7999 13.3334C13.0666 12.9801 13.3333 12.6201 13.5999 12.2667C12.9399 11.7734 12.1066 11.1467 11.4666 10.6667C11.1999 11.0267 10.9333 11.3867 10.6666 11.7401Z" fill="#FFBD00"/>
<path d="M13.5999 3.73341C13.3333 3.38008 13.0666 3.02008 12.7999 2.66675C12.1399 3.16008 11.3066 3.78675 10.6666 4.26675C10.9333 4.62008 11.1999 4.98008 11.4666 5.33341C12.1066 4.85341 12.9399 4.23341 13.5999 3.73341Z" fill="#FFBD00"/>
<path d="M2.66659 6.00008C1.93325 6.00008 1.33325 6.60008 1.33325 7.33341V8.66675C1.33325 9.40008 1.93325 10.0001 2.66659 10.0001H3.33325V12.6667H4.66659V10.0001H5.33325L8.66659 12.0001V4.00008L5.33325 6.00008H2.66659ZM6.01992 7.14008L7.33325 6.35341V9.64675L6.01992 8.86008L5.69992 8.66675H2.66659V7.33341H5.69992L6.01992 7.14008Z" fill="#FFBD00"/>
<path d="M10.3333 8.00008C10.3333 7.11341 9.94659 6.31341 9.33325 5.76675V10.2267C9.94659 9.68675 10.3333 8.88675 10.3333 8.00008Z" fill="#FFBD00"/>
</svg>
