<svg width="16" height="16" viewBox="0 0 16 16" fill="none" xmlns="http://www.w3.org/2000/svg">
<g id="icon">
<g id="Vector">
<path d="M12 7.33329C12 7.77996 12 8.21996 12 8.66663C12.8 8.66663 13.84 8.66663 14.6667 8.66663C14.6667 8.21996 14.6667 7.77996 14.6667 7.33329C13.84 7.33329 12.8 7.33329 12 7.33329Z" fill="white"/>
<path d="M10.6667 11.74C11.3067 12.2133 12.14 12.84 12.8 13.3333C13.0667 12.98 13.3333 12.62 13.6 12.2666C12.94 11.7733 12.1067 11.1466 11.4667 10.6666C11.2 11.0266 10.9333 11.3866 10.6667 11.74Z" fill="white"/>
<path d="M13.6 3.73329C13.3333 3.37996 13.0667 3.01996 12.8 2.66663C12.14 3.15996 11.3067 3.78663 10.6667 4.26663C10.9333 4.61996 11.2 4.97996 11.4667 5.33329C12.1067 4.85329 12.94 4.23329 13.6 3.73329Z" fill="white"/>
<path d="M2.66668 5.99996C1.93334 5.99996 1.33334 6.59996 1.33334 7.33329V8.66663C1.33334 9.39996 1.93334 9.99996 2.66668 9.99996H3.33334V12.6666H4.66668V9.99996H5.33334L8.66668 12V3.99996L5.33334 5.99996H2.66668ZM6.02001 7.13996L7.33334 6.35329V9.64663L6.02001 8.85996L5.70001 8.66663H2.66668V7.33329H5.70001L6.02001 7.13996Z" fill="white"/>
<path d="M10.3333 7.99996C10.3333 7.11329 9.94668 6.31329 9.33334 5.76663V10.2266C9.94668 9.68663 10.3333 8.88663 10.3333 7.99996Z" fill="white"/>
</g>
</g>
</svg>
